:SAMPLES-PER-SECOND 30
:FULLY-SPECIFIED
:DEGREES
47
root  52.3507 38.3552 -31.9491 -145.067 -78.6031 149.069
RightUpLeg  -6.44655 -3.45888 -9.88638
RightLeg  52.1548 -1.12672 -1.95822
RightFoot  5.91784 -0.846698 5.81699
RightToes  -1.74624e-010 0 -3.6325e-017
Spine  10.8946 4.02107 2.42923
Spine1  3.98499 6.7946 -10.9196
HEad  -18.7947 -0.0457558 1.82947
LeftShoulder1  7.36179 -11.1297 -43.7774
LeftArm  -3.32476 28.5379 -28.7866
LeftForeArm  -178.289 -58.1198 -164.987
LeftHand  -0.244104 0.0205437 5.32207
RightShoulder  6.41027 10.5215 39.5895
RightArm  13.1418 -17.726 34.3144
RightForeArm  150.883 72.9972 145.324
RightHand  -0.149105 -9.50586 2.72254
LeftUpLeg  -18.0556 5.50392 -11.2633
LeftLeg  28.9012 7.5873 4.88115
LeftFoot  -17.4683 0.0756862 -0.599264
LeftToes  9.06232e-013 -1.14826e-010 3.0111e-013
48
root  51.0401 37.6411 -32.1691 -142.126 -77.5609 144.432
RightUpLeg  -11.8505 -1.45723 -11.5042
RightLeg  63.9344 -1.59198 -4.19535
RightFoot  7.12829 -0.528374 3.50076
RightToes  -1.74624e-010 0 -3.6325e-017
Spine  13.3062 3.49421 -1.15802
Spine1  4.48062 5.65088 -9.51528
HEad  -21.3167 0.888403 2.27524
LeftShoulder1  7.49776 -11.0646 -44.8287
LeftArm  -3.83826 24.1843 -25.9846
LeftForeArm  178.566 -60.0494 -163.532
LeftHand  -0.244104 0.0205437 5.32207
RightShoulder  6.52795 10.3847 40.8152
RightArm  10.794 -18.1971 35.4445
RightForeArm  129.363 78.3127 122.982
RightHand  -0.064858 -8.36303 0.218964
LeftUpLeg  -16.5623 6.08356 -12.5367
LeftLeg  34.1683 7.95665 6.11701
LeftFoot  -21.2267 0.125777 0.052467
LeftToes  9.06232e-013 -1.14826e-010 3.0111e-013
49
root  49.601 37.2094 -32.4286 -139.082 -77.7656 140.487
RightUpLeg  -17.1781 -1.62409 -12.2227
RightLeg  71.6967 -1.98492 -7.58288
RightFoot  4.34087 -0.166443 1.41069
RightToes  -1.74624e-010 0 -3.6325e-017
Spine  14.4658 2.75194 -3.99047
Spine1  5.62334 4.11992 -7.20514
HEad  -23.7953 1.84508 2.08284
LeftShoulder1  7.94817 -11.3181 -46.7737
LeftArm  -3.20211 18.6528 -22.4562
LeftForeArm  174.436 -63.0791 -161.037
LeftHand  -0.244104 0.0205437 5.32207
RightShoulder  6.79845 10.2824 42.9757
RightArm  5.90755 -21.4033 35.5198
RightForeArm  91.3993 80.0203 90.552
RightHand  0.0143709 -6.26441 -7.01949
LeftUpLeg  -14.2439 7.47542 -12.4715
LeftLeg  36.8255 6.21956 5.36117
LeftFoot  -25.0247 0.0320859 -0.980701
LeftToes  9.06232e-013 -1.14826e-010 3.0111e-013
50
root  47.9516 37.1744 -32.6912 -138.717 -79.0039 140.121
RightUpLeg  -22.0768 -3.34047 -11.4985
RightLeg  74.3332 -2.284 -10.3083
RightFoot  0.645478 -0.0473146 0.525082
RightToes  -1.74624e-010 0 -3.6325e-017
Spine  14.1795 1.82867 -5.8659
Spine1  6.69886 2.21125 -3.86335
HEad  -25.0143 3.36771 1.12324
LeftShoulder1  8.35505 -11.6636 -48.0817
LeftArm  -1.67253 14.8814 -21.1302
LeftForeArm  173.288 -64.546 -159.727
LeftHand  -0.244104 0.0205437 5.32207
RightShoulder  6.81081 10.0125 43.9649
RightArm  1.87461 -28.124 33.8707
RightForeArm  79.6906 79.4376 89.2513
RightHand  -0.0611342 -4.90129 -14.3901
LeftUpLeg  -10.5978 9.18904 -10.7688
LeftLeg  35.7209 3.74325 3.28251
LeftFoot  -27.0798 -0.078405 -1.75719
LeftToes  9.06232e-013 -1.14826e-010 3.0111e-013
51
root  46.1074 37.5151 -32.9346 -145.692 -80.4378 147.784
RightUpLeg  -26.3476 -5.51146 -9.1342
RightLeg  72.3027 -3.17276 -11.9911
RightFoot  -1.89747 -0.0935623 0.987561
RightToes  -1.74624e-010 0 -3.6325e-017
Spine  13.1313 0.571715 -6.41707
Spine1  6.86062 0.00735734 -0.381637
HEad  -25.2023 5.73602 -0.638191
LeftShoulder1  8.30155 -11.646 -47.8191
LeftArm  0.295778 14.3363 -22.7691
LeftForeArm  176.047 -63.018 -161.213
LeftHand  -0.244104 0.0205437 5.32207
RightShoulder  6.2366 9.36511 42.1615
RightArm  2.51346 -36.2705 30.959
RightForeArm  101.526 77.9606 116.318
RightHand  -0.0838121 -4.88424 -15.5891
LeftUpLeg  -6.01088 10.2946 -7.89051
LeftLeg  31.746 2.4941 2.01233
LeftFoot  -26.7544 -0.0661624 -1.65731
LeftToes  9.06232e-013 -1.14826e-010 3.0111e-013
52
root  44.1046 38.1562 -33.2072 -160.712 -80.7694 163.952
RightUpLeg  -29.638 -7.09091 -5.50115
RightLeg  66.2387 -5.06624 -13.0526
RightFoot  -3.7903 -0.154154 1.94803
RightToes  -1.74624e-010 0 -3.6325e-017
Spine  11.7262 -0.812354 -5.37875
Spine1  6.11611 -1.83541 1.85691
HEad  -24.4702 8.37313 -2.60177
LeftShoulder1  7.90271 -11.3051 -46.5437
LeftArm  2.58096 15.7644 -25.7069
LeftForeArm  178.976 -60.1548 -163.532
LeftHand  -0.244104 0.0205437 5.32207
RightShoulder  5.38506 8.59119 38.4572
RightArm  6.68059 -43.1628 27.7358
RightForeArm  126.924 74.2681 138.381
RightHand  0.0715234 -6.55461 -10.716
LeftUpLeg  -1.10038 11.1659 -4.53293
LeftLeg  26.1455 2.4262 1.66604
LeftFoot  -23.8236 -0.101967 -2.27628
LeftToes  9.06232e-013 -1.14826e-010 3.0111e-013
53
root  41.9574 38.9507 -33.566 -174.967 -79.414 179.386
RightUpLeg  -31.1392 -7.47804 -1.78253
RightLeg  56.349 -7.35641 -12.1869
RightFoot  -5.4745 -0.175034 2.6738
RightToes  -1.74624e-010 0 -3.6325e-017
Spine  10.0037 -1.76709 -3.17059
Spine1  5.13783 -2.65566 2.2508
HEad  -22.4758 10.423 -4.13326
LeftShoulder1  7.5249 -10.9786 -45.2799
LeftArm  5.18921 16.9801 -28.1166
LeftForeArm  -179.834 -58.3056 -164.759
LeftHand  -0.244104 0.0205437 5.32207
RightShoulder  4.80225 8.20396 35.0707
RightArm  9.77503 -48.5054 25.5482
RightForeArm  141.501 71.0176 147.881
RightHand  0.103698 -8.42098 -5.16442
LeftUpLeg  3.87891 13.3473 -0.927575
LeftLeg  20.2596 1.70114 0.89516
LeftFoot  -17.8481 -0.15418 -4.89491
LeftToes  9.06232e-013 -1.14826e-010 3.0111e-013
54
root  39.7177 39.6863 -33.9899 177.297 -77.5109 -172.34
RightUpLeg  -30.3034 -6.97921 0.890101
RightLeg  43.7202 -8.46495 -8.91468
RightFoot  -6.53307 -0.166389 2.89041
RightToes  -1.74624e-010 0 -3.6325e-017
Spine  8.67252 -2.12964 -0.670772
Spine1  4.35038 -2.65737 1.63922
HEad  -19.8179 11.6035 -5.34252
LeftShoulder1  7.30691 -10.7962 -44.4955
LeftArm  7.58451 16.9433 -29.6957
LeftForeArm  -178.336 -57.8457 -165.137
LeftHand  -0.244104 0.0205437 5.32207
RightShoulder  4.66403 8.40694 33.2184
RightArm  9.58638 -52.9503 24.7495
RightForeArm  145.315 68.8672 151.702
RightHand  0.0860258 -9.39014 -3.72661
LeftUpLeg  8.50842 15.9158 2.70323
LeftLeg  16.1824 0.876106 -0.302128
LeftFoot  -9.15518 0.202681 -7.90608
LeftToes  9.06232e-013 -1.14826e-010 3.0111e-013
55
root  37.5088 40.1641 -34.4254 173.472 -76.373 -168.937
RightUpLeg  -27.6229 -6.41999 2.20189
RightLeg  30.9524 -7.72017 -5.22343
RightFoot  -7.73207 -0.147738 3.04903
RightToes  -1.74624e-010 0 -3.6325e-017
Spine  8.51839 -2.33941 1.20597
Spine1  3.88048 -2.63022 1.22314
HEad  -17.9555 12.206 -6.64148
LeftShoulder1  7.20593 -10.7218 -44.0903
LeftArm  9.03828 15.8615 -30.8473
LeftForeArm  -175.812 -58.0836 -165.212
LeftHand  -0.244104 0.0205437 5.32207
RightShoulder  4.76043 8.8825 32.4916
RightArm  6.90343 -55.6865 25.3561
RightForeArm  143.225 67.4528 153.301
RightHand  0.161443 -9.39285 -5.96013
LeftUpLeg  11.392 17.113 5.1048
LeftLeg  16.4072 0.924777 -0.341316
LeftFoot  0.0152047 0.826712 -8.48186
LeftToes  9.06232e-013 -1.14826e-010 3.0111e-013
56
root  35.4096 40.2071 -34.8602 171.242 -76.3565 -167.72
RightUpLeg  -24.5425 -6.31839 2.54556
RightLeg  21.4881 -5.6739 -2.62335
RightFoot  -9.58891 -0.12347 3.87229
RightToes  -1.74624e-010 0 -3.6325e-017
Spine  9.08924 -2.73022 2.39346
Spine1  3.86174 -2.83303 1.07659
HEad  -17.154 12.4802 -7.88713
LeftShoulder1  7.19805 -10.8253 -43.7066
LeftArm  9.54484 14.2176 -31.535
LeftForeArm  -174.821 -58.9959 -164.769
LeftHand  -0.244104 0.0205437 5.32207
RightShoulder  4.77005 9.16853 31.6962
RightArm  2.54221 -56.0623 28.3285
RightForeArm  141.065 67.3782 153.121
RightHand  0.220297 -8.89516 -8.41452
LeftUpLeg  11.1823 15.1146 5.16056
LeftLeg  22.4161 2.14927 1.46377
LeftFoot  6.27096 1.01443 -6.78579
LeftToes  9.06232e-013 -1.14826e-010 3.0111e-013
57
root  33.4022 39.7842 -35.2892 167.818 -76.8376 -165.342
RightUpLeg  -22.6089 -6.49431 2.97183
RightLeg  18.469 -3.25479 -1.21953
RightFoot  -10.5647 -0.10469 4.69279
RightToes  -1.74624e-010 0 -3.6325e-017
Spine  9.65012 -3.04094 4.19131
Spine1  4.10523 -2.75687 0.61311
HEad  -16.3994 12.3706 -8.69655
LeftShoulder1  7.21224 -11.046 -43.096
LeftArm  9.78276 12.2251 -32.0536
LeftForeArm  -176.341 -60.8986 -163.451
LeftHand  -0.244104 0.0205437 5.32207
RightShoulder  4.58177 9.09004 30.4214
RightArm  -2.36082 -54.9335 32.6817
RightForeArm  140.506 68.4189 151.697
RightHand  0.225347 -8.6842 -9.09744
LeftUpLeg  8.36777 9.03731 3.85526
LeftLeg  33.1569 4.85011 3.73897
LeftFoot  8.15587 0.806515 -4.95663
LeftToes  9.06232e-013 -1.14826e-010 3.0111e-013
58
root  31.4166 39.0632 -35.6901 160.531 -77.0296 -158.986
RightUpLeg  -22.0959 -6.57776 4.41169
RightLeg  22.2582 -1.58646 -0.835454
RightFoot  -9.98219 -0.109434 3.81766
RightToes  -1.74624e-010 0 -3.6325e-017
Spine  10.3845 -3.04076 7.44637
Spine1  4.08069 -2.1254 -0.0945151
HEad  -15.7012 11.7737 -9.33039
LeftShoulder1  7.18754 -11.0848 -42.8207
LeftArm  9.82016 10.0642 -33.0254
LeftForeArm  -177.505 -63.439 -161.535
LeftHand  -0.244104 0.0205437 5.32207
RightShoulder  4.44379 8.81464 30.1195
RightArm  -5.00977 -52.7103 33.6485
RightForeArm  140.003 68.9118 150.943
RightHand  0.204927 -8.44197 -9.03206
LeftUpLeg  4.37416 4.26211 3.7544
LeftLeg  45.8147 4.76372 5.6062
LeftFoot  6.60793 0.577718 -3.90907
LeftToes  9.06232e-013 -1.14826e-010 3.0111e-013
59
root  29.4294 38.2781 -36.0529 150.808 -76.6627 -150.173
RightUpLeg  -21.8724 -5.89605 6.31981
RightLeg  29.4663 -1.85364 -1.4159
RightFoot  -9.98095 -0.0880126 1.18749
RightToes  -1.74624e-010 0 -3.6325e-017
Spine  11.5799 -2.94407 11.1681
Spine1  3.91696 -1.42252 -0.447908
HEad  -16.3376 10.8478 -10.3668
LeftShoulder1  7.33098 -10.9779 -44.0613
LeftArm  8.63515 8.62762 -33.854
LeftForeArm  -176.63 -65.7554 -159.69
LeftHand  -0.244104 0.0205437 5.32207
RightShoulder  4.68276 8.63806 32.6195
RightArm  -4.06831 -47.6158 28.3634
RightForeArm  137.757 68.5722 151.147
RightHand  0.207975 -8.23915 -9.71449
LeftUpLeg  -0.40706 0.73622 4.8363
LeftLeg  57.5727 3.71469 6.81269
LeftFoot  3.35071 0.420885 -3.42765
LeftToes  9.06232e-013 -1.14826e-010 3.0111e-013
